<svg xmlns="http://www.w3.org/2000/svg" viewBox="0 0 32 32" fill="none">
  <rect width="32" height="32" rx="6" fill="#1F4A3D"/>
  <g stroke="#F6F1E8" stroke-width="1.6" stroke-linejoin="round" stroke-linecap="round">
    <path d="M9 6h9l5 5v9.5"/>
    <path d="M18 6v5h5"/>
    <path d="M9 6v18.5"/>
    <path d="M9 15.5h14" stroke="#B56B2A"/>
    <path d="M9 19c3-1.6 5.5 1.4 8.5 0 2-.9 3.8.4 5.5 0" stroke="#F6F1E8"/>
  </g>
  <path d="M16 20.5c-1.7 0-3 1.3-3 3 0 2.1 3 4.5 3 4.5s3-2.4 3-4.5c0-1.7-1.3-3-3-3z" fill="#B56B2A" stroke="#F6F1E8" stroke-width="1"/>
  <circle cx="16" cy="23.4" r="1.1" fill="#1F4A3D"/>
</svg>
